PathFileType	4	(x/y/z)	S05_PSF_T01
DataRate	CameraRate	NumFrames	NumMarkers	Units	OrigDataRate	OrigDataStartFrame	OrigNumFrames
240	240	9	50	mm	240	267	427
Frame#	Time	Sternum			R.Acromium			L.Acromium			Top.Head			R.ASIS			L.ASIS			R.PSIS			L.PSIS			R.Great.Tro			L.Great.Tro			R.Iliac.Crest			L.Iliac.Crest			V.Sacral			R.Thigh.Upper.Post			R.Thigh.Lower.Ant			R.Thigh.Lower.Post			R.Thigh.Upper.Ant			R.Knee.Lat			R.Knee.Med			R.Shank.Upper.Post			R.Shank.Lower.Ant			R.Shank.Lower.Post			R.Shank.Upper.Ant			R.Ankle.Lat			R.Ankle.Med			R.Heel.Upper			R.Heel.Med			R.Heel.Lat			R.Toe.Lat			R.Toe.Med			R.Toe.Tip			L.Thigh.Upper.Post			L.Thigh.Lower.Ant			L.Thigh.Lower.Post			L.Thigh.Upper.Ant			L.Knee.Lat			L.Shank.Upper.Post			L.Shank.Lower.Ant			L.Shank.Lower.Post			L.Shank.Upper.Ant			L.Ankle.Lat			L.Ankle.Med			L.Heel.Upper			L.Heel.Med			L.Heel.Lat			L.Toe.Lat			L.Toe.Med			L.Toe.Tip			Cervical.Spine			Back			
		X1	Y1	Z1	X2	Y2	Z2	X3	Y3	Z3	X4	Y4	Z4	X5	Y5	Z5	X6	Y6	Z6	X7	Y7	Z7	X8	Y8	Z8	X9	Y9	Z9	X10	Y10	Z10	X11	Y11	Z11	X12	Y12	Z12	X13	Y13	Z13	X14	Y14	Z14	X15	Y15	Z15	X16	Y16	Z16	X17	Y17	Z17	X18	Y18	Z18	X19	Y19	Z19	X20	Y20	Z20	X21	Y21	Z21	X22	Y22	Z22	X23	Y23	Z23	X24	Y24	Z24	X25	Y25	Z25	X26	Y26	Z26	X27	Y27	Z27	X28	Y28	Z28	X29	Y29	Z29	X30	Y30	Z30	X31	Y31	Z31	X32	Y32	Z32	X33	Y33	Z33	X34	Y34	Z34	X35	Y35	Z35	X36	Y36	Z36	X37	Y37	Z37	X38	Y38	Z38	X39	Y39	Z39	X40	Y40	Z40	X41	Y41	Z41	X42	Y42	Z42	X43	Y43	Z43	X44	Y44	Z44	X45	Y45	Z45	X46	Y46	Z46	X47	Y47	Z47	X48	Y48	Z48	X49	Y49	Z49	X50	Y50	Z50	

267	1.1083	-117.06	1242.3	320.99	-201.56	1503.7	479.84	-226.9	1516.4	152.03	-205.27	1811.4	298.63	-191.46	990.47	458.66	-162.24	993.05	208.58	-379.82	1015.6	346	-368.08	1007.7	255.72	-291.8	920.03	508.66	-232.64	907.96	123.67	-277.67	1078.4	484.21	-250.13	1068.8	148.84	-389.64	978.81	313.74	-296.19	698.1	497.54	-257.34	614.2	452.56	-327.6	616.19	472.31	-227.87	695.77	479.38	-366.1	522.5	448.54	-352.26	508.97	315.51	-509.88	312.71	425.75	-467.84	233.05	427.57	-528.28	240.44	406.31	-447.68	306.76	444.79	-510.07	132.67	406.21	-489.82	157.93	318.38	-586.31	92.924	339.13	-578.38	59.602	313.48	-584.76	65.817	377.52	-428.28	35.892	446.44	-382.14	37.254	329.08	-321.44	45.895	379.25	-164.77	677.8	124.4	-69.539	630.85	155.91	-128.41	590.75	140.67	-98.597	716.46	142.16	-82.19	514.6	153	-52.379	308.1	150.52	34.966	289.07	149.28	-18.404	244.23	168.51	-1.2359	349.54	138.88	83.143	133.4	171.89	109.8	169.2	254.05	63.859	60.878	229.37	90.192	49.56	260.76	79.032	38.089	201.08	229.81	128.75	130.05	250.22	160.53	244.12	292.62	201.68	184.22	-260.29	1549.3	322.49	-375.44	1275.3	323.35
268	1.1125	-111.37	1241.4	320.53	-196.1	1503	479.13	-221.37	1515.3	151.23	-199.9	1810.6	297.55	-185.77	989.62	458.43	-156.3	992.11	208.39	-374.05	1014.7	345.41	-362.23	1006.8	255.14	-286.47	919.45	508.41	-226.53	907.1	123.39	-272.07	1077.6	483.83	-244.03	1067.7	148.43	-383.82	977.96	313.16	-291.53	697.6	497.56	-252.83	613.47	452.77	-323.12	615.72	472.41	-223.16	695.08	479.58	-362.01	522.13	448.72	-348.04	508.4	315.74	-507.48	313.46	425.93	-466.11	233.44	427.72	-526.5	241.34	406.47	-445.33	306.98	444.97	-509.28	133.42	406.38	-488.72	158.64	318.49	-585.8	94.247	339.31	-578.1	60.897	313.59	-584.41	67.034	377.67	-428.18	35.889	446.49	-382.02	37.26	329.15	-321.31	45.659	379.3	-158.34	677.2	124.39	-63.17	630.29	156.16	-121.99	590.18	140.81	-92.198	715.89	142.22	-75.837	513.99	153.08	-46.373	307.41	150.41	40.913	288.19	149.53	-12.626	243.44	168.46	4.8943	348.74	139.06	88.682	132.54	172.06	115.05	168.17	254.41	68.971	60.093	229.29	95.231	48.675	260.8	84.309	37.338	201.08	235.52	127.77	130.87	255.42	159.34	245.09	298.13	200.53	185.45	-254.76	1548.5	321.71	-369.81	1274.4	322.78
269	1.1167	-105.66	1240.5	320.04	-190.62	1502.2	478.39	-215.84	1514.2	150.42	-194.53	1809.8	296.46	-180.06	988.79	458.19	-150.34	991.22	208.18	-368.26	1013.9	344.8	-356.37	1006	254.54	-281.13	918.87	508.14	-220.38	906.31	123.08	-266.45	1076.8	483.44	-237.94	1066.7	148	-378	977.14	312.55	-286.79	697.12	497.57	-248.22	612.77	453	-318.54	615.25	472.52	-218.37	694.42	479.77	-357.79	521.75	448.91	-343.67	507.8	316	-504.99	314.25	426.15	-464.32	233.87	427.9	-524.64	242.3	406.66	-442.89	307.22	445.17	-508.44	134.21	406.57	-487.56	159.38	318.64	-585.25	95.661	339.52	-577.79	62.288	313.72	-584.03	68.334	377.84	-428.07	35.885	446.54	-381.9	37.271	329.23	-321.19	45.431	379.36	-151.78	676.7	124.41	-56.645	629.87	156.41	-115.41	589.71	140.98	-85.675	715.43	142.27	-69.365	513.45	153.16	-40.558	306.76	150.34	46.627	287.21	149.82	-7.1479	242.65	168.45	10.893	347.89	139.28	93.708	131.54	172.24	119.87	166.92	254.79	73.437	59.259	229.24	99.63	47.678	260.86	88.885	36.513	201.11	240.67	126.38	131.67	260.17	157.67	246.03	303.23	198.83	186.65	-249.21	1547.6	320.9	-364.16	1273.5	322.21
270	1.1208	-99.93	1239.6	319.53	-185.11	1501.5	477.64	-210.29	1513.2	149.58	-189.15	1809	295.35	-174.33	988	457.94	-144.36	990.38	207.96	-362.45	1013.1	344.18	-350.5	1005.1	253.93	-275.76	918.31	507.84	-214.21	905.58	122.76	-260.82	1076	483.03	-231.87	1065.7	147.57	-372.16	976.33	311.93	-281.97	696.66	497.58	-243.51	612.09	453.24	-313.85	614.79	472.63	-213.51	693.8	479.97	-353.45	521.37	449.12	-339.15	507.19	316.28	-502.41	315.08	426.38	-462.45	234.33	428.11	-522.7	243.3	406.86	-440.37	307.48	445.39	-507.55	135.06	406.78	-486.35	160.17	318.81	-584.65	97.174	339.76	-577.45	63.78	313.87	-583.61	69.722	378.03	-427.96	35.882	446.6	-381.77	37.288	329.31	-321.06	45.21	379.41	-145.11	676.28	124.46	-49.987	629.56	156.66	-108.69	589.35	141.19	-79.043	715.08	142.3	-62.796	512.97	153.27	-34.923	306.15	150.32	52.125	286.14	150.15	-1.9485	241.85	168.47	16.765	347	139.55	98.263	130.42	172.44	124.29	165.49	255.19	77.309	58.399	229.21	103.44	46.591	260.95	92.811	35.635	201.16	245.29	124.61	132.44	264.49	155.57	246.95	307.95	196.61	187.81	-243.64	1546.8	320.08	-358.49	1272.7	321.62
271	1.125	-94.183	1238.7	318.99	-179.58	1500.8	476.87	-204.73	1512.2	148.73	-183.76	1808.3	294.23	-168.57	987.25	457.67	-138.36	989.6	207.74	-356.63	1012.3	343.55	-344.6	1004.4	253.31	-270.36	917.77	507.52	-208.01	904.9	122.41	-255.16	1075.3	482.6	-225.81	1064.8	147.12	-366.29	975.55	311.3	-277.06	696.22	497.57	-238.68	611.45	453.49	-309.05	614.34	472.74	-208.56	693.21	480.16	-348.97	520.99	449.35	-334.48	506.56	316.6	-499.73	315.97	426.64	-460.51	234.84	428.33	-520.68	244.37	407.07	-437.76	307.77	445.64	-506.61	135.97	407.01	-485.06	161.01	319.01	-584	98.791	340.02	-577.07	65.379	314.04	-583.16	71.205	378.24	-427.84	35.879	446.66	-381.65	37.311	329.4	-320.94	44.996	379.47	-138.36	675.94	124.53	-43.223	629.36	156.9	-101.86	589.07	141.44	-72.323	714.83	142.32	-56.154	512.55	153.39	-29.457	305.56	150.35	57.422	284.99	150.51	2.996	241.04	168.52	22.515	346.08	139.84	102.39	129.2	172.66	128.37	163.91	255.59	80.643	57.537	229.2	106.7	45.443	261.05	96.145	34.728	201.23	249.43	122.5	133.19	268.44	153.06	247.83	312.34	193.92	188.92	-238.05	1546	319.24	-352.81	1271.9	321.03
272	1.1292	-88.418	1237.9	318.43	-174.02	1500.2	476.08	-199.16	1511.2	147.86	-178.36	1807.6	293.09	-162.79	986.54	457.39	-132.32	988.88	207.5	-350.78	1011.5	342.9	-338.67	1003.6	252.68	-264.93	917.24	507.18	-201.77	904.29	122.06	-249.48	1074.5	482.16	-219.75	1064	146.66	-360.41	974.79	310.64	-272.08	695.8	497.54	-233.74	610.84	453.75	-304.14	613.9	472.86	-203.53	692.66	480.36	-344.36	520.62	449.59	-329.66	505.92	316.95	-496.94	316.91	426.92	-458.5	235.39	428.58	-518.57	245.49	407.29	-435.05	308.1	445.9	-505.6	136.95	407.26	-483.69	161.9	319.24	-583.28	100.52	340.3	-576.64	67.093	314.22	-582.65	72.79	378.47	-427.72	35.88	446.74	-381.52	37.339	329.49	-320.81	44.787	379.52	-131.55	675.66	124.63	-36.38	629.24	157.13	-94.959	588.88	141.73	-65.535	714.65	142.32	-49.465	512.19	153.52	-24.147	305.01	150.4	62.537	283.77	150.9	7.7122	240.23	168.6	28.148	345.13	140.17	106.15	127.89	172.88	132.14	162.2	256.01	83.499	56.701	229.2	109.48	44.263	261.16	98.948	33.821	201.31	253.14	120.08	133.91	272.05	150.19	248.67	316.43	190.79	189.97	-232.44	1545.3	318.38	-347.11	1271.1	320.42
273	1.1333	-82.634	1237.1	317.84	-168.44	1499.6	475.27	-193.58	1510.3	146.97	-172.96	1806.9	291.93	-156.97	985.87	457.1	-126.26	988.22	207.25	-344.92	1010.8	342.24	-332.73	1002.9	252.04	-259.47	916.73	506.81	-195.5	903.74	121.68	-243.78	1073.9	481.7	-213.69	1063.2	146.18	-354.5	974.06	309.97	-267	695.41	497.51	-228.68	610.27	454.02	-299.11	613.47	472.98	-198.41	692.16	480.56	-339.62	520.25	449.86	-324.67	505.27	317.32	-494.05	317.91	427.21	-456.41	236	428.84	-516.37	246.68	407.52	-432.25	308.47	446.18	-504.52	137.99	407.53	-482.25	162.84	319.5	-582.48	102.36	340.6	-576.16	68.929	314.41	-582.08	74.484	378.71	-427.59	35.886	446.81	-381.38	37.373	329.59	-320.69	44.585	379.57	-124.69	675.45	124.75	-29.488	629.18	157.35	-88.011	588.74	142.04	-58.701	714.53	142.29	-42.753	511.87	153.67	-18.978	304.5	150.49	67.487	282.51	151.31	12.228	239.42	168.7	33.672	344.16	140.52	109.58	126.53	173.1	135.65	160.39	256.42	85.943	55.919	229.23	111.84	43.083	261.29	101.28	32.94	201.41	256.48	117.4	134.6	275.37	147.02	249.47	320.27	187.3	190.96	-226.82	1544.6	317.5	-341.39	1270.4	319.8
274	1.1375	-76.831	1236.4	317.23	-162.84	1499	474.44	-187.99	1509.5	146.06	-167.55	1806.3	290.76	-151.12	985.26	456.8	-120.16	987.63	207	-339.02	1010.1	341.56	-326.75	1002.2	251.38	-253.98	916.25	506.42	-189.18	903.25	121.3	-238.05	1073.2	481.23	-207.61	1062.4	145.7	-348.56	973.36	309.29	-261.84	695.04	497.45	-223.51	609.73	454.29	-293.97	613.06	473.1	-193.19	691.69	480.76	-334.74	519.9	450.13	-319.52	504.61	317.73	-491.06	318.97	427.51	-454.23	236.67	429.13	-514.07	247.95	407.75	-429.36	308.89	446.48	-503.36	139.1	407.81	-480.71	163.84	319.79	-581.6	104.33	340.91	-575.6	70.894	314.61	-581.46	76.294	378.96	-427.46	35.899	446.89	-381.24	37.413	329.68	-320.57	44.387	379.62	-117.83	675.28	124.89	-22.576	629.18	157.57	-81.052	588.65	142.38	-51.841	714.46	142.25	-36.045	511.59	153.81	-13.934	304.01	150.61	72.292	281.23	151.74	16.573	238.64	168.82	39.093	343.19	140.89	112.74	125.13	173.32	138.94	158.51	256.83	88.039	55.217	229.27	113.82	41.933	261.42	103.22	32.113	201.52	259.5	114.5	135.24	278.46	143.59	250.21	323.9	183.48	191.89	-221.18	1544	316.6	-335.66	1269.7	319.16
275	1.1417	-71.01	1235.7	316.6	-157.21	1498.5	473.6	-182.38	1508.7	145.13	-162.14	1805.7	289.58	-145.24	984.69	456.49	-114.04	987.11	206.73	-333.1	1009.4	340.87	-320.74	1001.6	250.71	-248.43	915.79	506.01	-182.83	902.82	120.9	-232.3	1072.6	480.74	-201.53	1061.7	145.2	-342.59	972.69	308.59	-256.58	694.7	497.39	-218.21	609.24	454.57	-288.71	612.67	473.23	-187.88	691.28	480.96	-329.71	519.56	450.43	-314.21	503.95	318.16	-487.95	320.11	427.83	-451.97	237.4	429.44	-511.67	249.28	407.98	-426.36	309.35	446.79	-502.12	140.29	408.11	-479.08	164.89	320.11	-580.63	106.42	341.24	-574.98	72.996	314.82	-580.76	78.228	379.22	-427.31	35.923	446.97	-381.09	37.46	329.78	-320.45	44.193	379.67	-110.97	675.16	125.04	-15.671	629.2	157.77	-74.11	588.61	142.74	-44.977	714.42	142.19	-29.361	511.35	153.96	-9.0006	303.56	150.74	76.973	279.94	152.17	20.777	237.87	168.94	44.42	342.23	141.27	115.68	123.73	173.54	142.05	156.61	257.24	89.854	54.618	229.32	115.49	40.843	261.57	104.81	31.363	201.64	262.24	111.42	135.85	281.34	139.96	250.9	327.35	179.4	192.75	-215.53	1543.4	315.69	-329.9	1269.1	318.52
